HIERARCHY
ROOT Hips
{
	OFFSET	0.00	0.00	0.00
	CHANNELS 6 Xposition Yposition Zposition Zrotation Xrotation Yrotation
	JOINT LeftUpLeg
	{
		OFFSET	 0.126116	-0.014019	-0.065224
		CHANNELS 3 Zrotation Xrotation Yrotation
		JOINT LeftLeg
		{
			OFFSET	 0.000000	 0.000000	 0.569914
			CHANNELS 3 Zrotation Xrotation Yrotation
			JOINT LeftFoot
			{
				OFFSET	 0.000000	 0.000000	 0.544423
				CHANNELS 3 Zrotation Xrotation Yrotation
				JOINT LeftToeBase
				{
					OFFSET	 0.000000	 0.000000	 0.207117
					CHANNELS 3 Zrotation Xrotation Yrotation
					End Site
					{
						OFFSET	 0.000000	 0.000000	 0.207117
					}
				}
			}
		}
	}
	JOINT RightUpLeg
	{
		OFFSET	-0.124023	-0.008373	-0.065224
		CHANNELS 3 Zrotation Xrotation Yrotation
		JOINT RightLeg
		{
			OFFSET	 0.000000	 0.000000	 0.570047
			CHANNELS 3 Zrotation Xrotation Yrotation
			JOINT RightFoot
			{
				OFFSET	 0.000000	 0.000000	 0.544354
				CHANNELS 3 Zrotation Xrotation Yrotation
				JOINT RightToeBase
				{
					OFFSET	 0.000000	 0.000000	 0.207540
					CHANNELS 3 Zrotation Xrotation Yrotation
					End Site
					{
						OFFSET	 0.000000	 0.000000	 0.207540
					}
				}
			}
		}
	}
	JOINT Spine
	{
		OFFSET	 0.000184	-0.007763	 0.117403
		CHANNELS 3 Zrotation Xrotation Yrotation
		JOINT Spine1
		{
			OFFSET	 0.000000	 0.000000	 0.137269
			CHANNELS 3 Zrotation Xrotation Yrotation
			JOINT Spine2
			{
				OFFSET	 0.000000	 0.000000	 0.156879
				CHANNELS 3 Zrotation Xrotation Yrotation
				JOINT LeftShoulder
				{
					OFFSET	 0.080501	-0.002496	 0.160144
					CHANNELS 3 Zrotation Xrotation Yrotation
					JOINT LeftArm
					{
						OFFSET	 0.000000	 0.000000	 0.164363
						CHANNELS 3 Zrotation Xrotation Yrotation
						JOINT LeftForeArm
						{
							OFFSET	 0.000000	 0.000000	 0.364576
							CHANNELS 3 Zrotation Xrotation Yrotation
							JOINT LeftHand
							{
								OFFSET	 0.000000	 0.000000	 0.360812
								CHANNELS 3 Zrotation Xrotation Yrotation
								JOINT LeftHandIndex1
								{
									OFFSET	 0.000000	 0.000000	 0.086006
									CHANNELS 3 Zrotation Xrotation Yrotation
									JOINT LeftHandIndex2
									{
										OFFSET	 0.000000	 0.000000	 0.047236
										CHANNELS 3 Zrotation Xrotation Yrotation
										JOINT LeftHandIndex3
										{
											OFFSET	-0.004284	-0.000551	 0.038166
											CHANNELS 3 Zrotation Xrotation Yrotation
											End Site
											{
												OFFSET	-0.004284	-0.000551	 0.038166
											}
										}
									}
								}
							}
						}
					}
				}
				JOINT Neck
				{
					OFFSET	 0.000000	 0.000000	 0.176489
					CHANNELS 3 Zrotation Xrotation Yrotation
					JOINT Head
					{
						OFFSET	 0.000000	-0.001747	 0.077940
						CHANNELS 3 Zrotation Xrotation Yrotation
						End Site
						{
							OFFSET	 0.000000	-0.001747	 0.077940
						}
					}
				}
				JOINT RightShoulder
				{
					OFFSET	-0.080363	 0.000306	 0.159706
					CHANNELS 3 Zrotation Xrotation Yrotation
					JOINT RightArm
					{
						OFFSET	 0.000000	 0.000000	 0.164196
						CHANNELS 3 Zrotation Xrotation Yrotation
						JOINT RightForeArm
						{
							OFFSET	 0.000000	 0.000000	 0.365611
							CHANNELS 3 Zrotation Xrotation Yrotation
							JOINT RightHand
							{
								OFFSET	 0.000000	 0.000000	 0.360648
								CHANNELS 3 Zrotation Xrotation Yrotation
								JOINT RightHandIndex1
								{
									OFFSET	 0.000000	 0.000000	 0.069977
									CHANNELS 3 Zrotation Xrotation Yrotation
									JOINT RightHandIndex2
									{
										OFFSET	 0.000000	 0.000000	 0.052305
										CHANNELS 3 Zrotation Xrotation Yrotation
										JOINT RightHandIndex3
										{
											OFFSET	 0.009002	-0.000782	 0.042196
											CHANNELS 3 Zrotation Xrotation Yrotation
											End Site
											{
												OFFSET	 0.009002	-0.000782	 0.042196
											}
										}
									}
								}
							}
						}
					}
				}
			}
		}
	}
}
MOTION
Frames:    9
Frame Time: 0.03333334
 0.000299	 0.019568	 1.273515	-0.002345	 0.004817	 0.174257	-8.057055	-1.755569	 179.001700	 1.467069	-12.444030	-0.727377	-5.262711	 71.293910	-1.046536	-2.385833	 28.452760	 0.000004	 7.897409	-1.846219	-179.253800	-1.458711	-12.053000	 0.690879	 5.034645	 70.924220	 1.092027	 2.384658	 28.388730	 0.000004	-5.326402	 2.549047	 0.273854	-2.126769	 4.266864	-0.754975	 6.435236	-5.277971	 1.435814	-91.776200	 78.527450	-180.000000	 61.978870	 41.442000	-55.173770	-8.242504	 4.336019	-11.087020	-32.009470	-19.856850	-4.986555	-2.635965	 4.993658	 6.788941	-5.165319	 0.784187	 3.516649	-5.225038	 0.466231	 0.424329	-0.000002	-3.783157	-0.089647	 6.233426	 4.280309	-0.233186	 89.782100	 78.203870	 180.000000	-64.623260	 42.002880	 56.932540	 7.568798	 5.089970	 12.122580	 32.912700	-20.700560	 9.737946	 6.112037	 4.509576	-0.364401	 4.968462	 1.518543	-9.347576	 5.168945	 0.703820	 2.021906
 0.000289	 0.019429	 1.275861	-0.001309	 0.006443	 0.168647	-7.863832	-1.740910	 178.989900	 1.467671	-12.397750	-0.724586	-5.266500	 70.884800	-1.034563	-2.385833	 28.452760	 0.000004	 7.705369	-1.840531	-179.234200	-1.458984	-12.030670	 0.689563	 5.043066	 70.527880	 1.078582	 2.384658	 28.388730	 0.000004	-6.392642	 2.375743	 0.241644	-2.018853	 4.866867	-0.673019	 6.103685	-6.072105	 1.409823	-91.776040	 78.527470	 179.999900	 62.161070	 41.547200	-55.013080	-8.787796	 4.403989	-11.454220	-33.659670	-23.913180	-5.716622	-2.635965	 4.993658	 6.788941	-5.165319	 0.784187	 3.516649	-5.225038	 0.466231	 0.424329	-0.000002	-3.783157	-0.089647	 5.880979	 3.954924	-0.203243	 89.782120	 78.203870	 180.000000	-64.251630	 41.102030	 58.680940	 7.156084	 4.671439	 11.897160	 35.008130	-25.381770	 10.256760	 6.112037	 4.509576	-0.364401	 4.968462	 1.518543	-9.347576	 5.168945	 0.703820	 2.021906
 0.000256	 0.019281	 1.278513	-0.000163	 0.007999	 0.152971	-7.634351	-1.715777	 178.983600	 1.468603	-12.325340	-0.720220	-5.251625	 70.415130	-1.028539	-2.385833	 28.452760	 0.000004	 7.500013	-1.841903	-179.205100	-1.459058	-12.024810	 0.689219	 5.066807	 70.092350	 1.058920	 2.384658	 28.388730	 0.000004	-7.598098	 2.194633	 0.205893	-1.811641	 5.494762	-0.559878	 5.472153	-6.919357	 1.308296	-91.776180	 78.527470	 180.000000	 62.308730	 41.668150	-54.812860	-9.475341	 4.474040	-11.856410	-35.858540	-28.686490	-6.939760	-2.635965	 4.993658	 6.788941	-5.165319	 0.784187	 3.516649	-5.225038	 0.466231	 0.424329	-0.000002	-3.783157	-0.089647	 5.242087	 3.639420	-0.166673	 89.782100	 78.203900	 180.000000	-62.320200	 39.422450	 59.265030	 5.977903	 5.474919	 15.052000	 37.469210	-31.035840	 11.166440	 6.112037	 4.509576	-0.364401	 4.968462	 1.518543	-9.347576	 5.168945	 0.703820	 2.021906
 0.000210	 0.019172	 1.280716	 0.000643	 0.008863	 0.132501	-7.455296	-1.688926	 178.985800	 1.469537	-12.252640	-0.715839	-5.251272	 70.021360	-1.021973	-2.385833	 28.452760	 0.000004	 7.320971	-1.851647	-179.174300	-1.458871	-12.039760	 0.690100	 5.074963	 69.743710	 1.043899	 2.384658	 28.388730	 0.000004	-8.578937	 2.061841	 0.179387	-1.574239	 5.956728	-0.455021	 4.753283	-7.553401	 1.163744	-91.776180	 78.527450	 180.000000	 62.379790	 41.766930	-54.639100	-10.183700	 4.518877	-12.158190	-37.840140	-32.462860	-8.272321	-2.635965	 4.993658	 6.788941	-5.165319	 0.784187	 3.516649	-5.225038	 0.466231	 0.424329	-0.000002	-3.783157	-0.089647	 4.534186	 3.423641	-0.135592	 89.782100	 78.203830	 180.000000	-59.784240	 37.615570	 60.865470	 4.430659	 5.680264	 17.150610	 38.869010	-35.827170	 11.857480	 6.112037	 4.509576	-0.364401	 4.968462	 1.518543	-9.347576	 5.168945	 0.703820	 2.021906
 0.000134	 0.019048	 1.283291	 0.001134	 0.009267	 0.100118	-7.238936	-1.652177	 178.995300	 1.470768	-12.155870	-0.710011	-5.249477	 69.543370	-1.015036	-2.385833	 28.452760	 0.000004	 7.106233	-1.874911	-179.131100	-1.458322	-12.084300	 0.692731	 5.087546	 69.338230	 1.022409	 2.384658	 28.388730	 0.000004	-9.724532	 1.929221	 0.152426	-1.214808	 6.421344	-0.321269	 3.671897	-8.200199	 0.918214	-91.776160	 78.527450	 180.000000	 62.368730	 41.866020	-54.411480	-11.035190	 4.550369	-12.470180	-40.519930	-36.349170	-10.219660	-2.635965	 4.993658	 6.788941	-5.165319	 0.784187	 3.516649	-5.225038	 0.466231	 0.424329	-0.000002	-3.783157	-0.089647	 3.489925	 3.220825	-0.098161	 89.782190	 78.203870	 179.999900	-55.841050	 35.148240	 64.834540	 2.094990	 4.916864	 17.511780	 39.661430	-41.129910	 12.485630	 6.112037	 4.509576	-0.364401	 4.968462	 1.518543	-9.347576	 5.168945	 0.703820	 2.021906
 0.000014	 0.018937	 1.285461	 0.001933	 0.013465	 0.075345	-7.041256	-1.602836	 178.994200	 1.472380	-12.028150	-0.702326	-5.246443	 69.086100	-1.009359	-2.385833	 28.452760	 0.000004	 6.909260	-1.899997	-179.094300	-1.457843	-12.123140	 0.695025	 5.101046	 68.966510	 0.999928	 2.384658	 28.388730	 0.000004	-10.722420	 1.836053	 0.121836	-0.826499	 6.736684	-0.196054	 2.508652	-8.644694	 0.632866	-91.776240	 78.527470	-180.000000	 62.274750	 41.938210	-54.255760	-11.881520	 4.502230	-12.592440	-42.973830	-38.760250	-12.081510	-2.635965	 4.993658	 6.788941	-5.165319	 0.784187	 3.516649	-5.225038	 0.466231	 0.424329	-0.000002	-3.783157	-0.089647	 2.383001	 3.090941	-0.064316	 89.782140	 78.203890	 179.999900	-50.992740	 32.242360	 67.894280	-0.405069	 4.664131	 19.464960	 39.350440	-44.698210	 12.701040	 6.112037	 4.509576	-0.364401	 4.968462	 1.518543	-9.347576	 5.168945	 0.703820	 2.021906
-0.000111	 0.018799	 1.287496	 0.001699	 0.016371	 0.042972	-6.830529	-1.553750	 179.000100	 1.473953	-11.901720	-0.694724	-5.243037	 68.607090	-1.003170	-2.385833	 28.452760	 0.000004	 6.701948	-1.935857	-179.050900	-1.457041	-12.187440	 0.698824	 5.116840	 68.585100	 0.974010	 2.384658	 28.388730	 0.000004	-11.704400	 1.730113	 0.117974	-0.367663	 7.025695	-0.105156	 1.151901	-8.969165	 0.304669	-91.776200	 78.527470	 180.000000	 62.059740	 41.973990	-54.078930	-12.831740	 4.414222	-12.656360	-45.173840	-39.563160	-13.673310	-2.635965	 4.993658	 6.788941	-5.165319	 0.784187	 3.516649	-5.225038	 0.466231	 0.424329	-0.000002	-3.783157	-0.089647	 1.101336	 3.011810	-0.028968	 89.782170	 78.203890	 179.999900	-45.240310	 28.776300	 72.857780	-3.078745	 3.712618	 19.094820	 37.538240	-46.470910	 12.056450	 6.112037	 4.509576	-0.364401	 4.968462	 1.518543	-9.347576	 5.168945	 0.703820	 2.021906
-0.000201	 0.018615	 1.289111	-0.000296	 0.017473	 0.009980	-6.640429	-1.515241	 179.011800	 1.475174	-11.802600	-0.688771	-5.238258	 68.187360	-0.999293	-2.385833	 28.452760	 0.000004	 6.518792	-1.968085	-179.009100	-1.456279	-12.248470	 0.702433	 5.128741	 68.247000	 0.952839	 2.384658	 28.388730	 0.000004	-12.493020	 1.715282	 0.082024	 0.057439	 7.078516	 0.040322	-0.118715	-9.042157	-0.040765	-91.776180	 78.527430	 180.000000	 61.762610	 41.960270	-53.902190	-13.716160	 4.309681	-12.673520	-46.413790	-38.366600	-14.311350	-2.635965	 4.993658	 6.788941	-5.165319	 0.784187	 3.516649	-5.225038	 0.466231	 0.424329	-0.000002	-3.783157	-0.089647	-0.088889	 2.991458	 0.002307	 89.782180	 78.203850	 179.999900	-39.754590	 25.741730	 77.773380	-5.622529	 2.837017	 18.033880	 34.850210	-45.794070	 10.506470	 6.112037	 4.509576	-0.364401	 4.968462	 1.518543	-9.347576	 5.168945	 0.703820	 2.021906
-0.000301	 0.018413	 1.290653	-0.001154	 0.017531	-0.037900	-6.426044	-1.469784	 179.036500	 1.476595	-11.686550	-0.681805	-5.229107	 67.710490	-0.998589	-2.385833	 28.452760	 0.000004	 6.310179	-2.006750	-178.953500	-1.455298	-12.326260	 0.707036	 5.138442	 67.869140	 0.932572	 2.384658	 28.388730	 0.000004	-13.253530	 1.746591	 0.046512	 0.532531	 6.983422	 0.218952	-1.547516	-8.908808	-0.434725	-91.776150	 78.527430	 180.000000	 61.295830	 41.876320	-53.643210	-14.744990	 4.179576	-12.684370	-46.746150	-34.539600	-13.803490	-2.635965	 4.993658	 6.788941	-5.165319	 0.784187	 3.516649	-5.225038	 0.466231	 0.424329	-0.000002	-3.783157	-0.089647	-1.428085	 3.025447	 0.037701	 89.782150	 78.203870	 180.000000	-32.717510	 21.366610	 83.622700	-8.610514	 1.970085	 15.903300	 29.954590	-41.833210	 7.609650	 6.112037	 4.509576	-0.364401	 4.968462	 1.518543	-9.347576	 5.168945	 0.703820	 2.021906
